{"title":"The.Dark.Knight.Rises.2012.TS.NEW.XVID.Legend2000","uid":7578579,"size":1921015497,"categoryP":"video","categoryS":"movies","magnet":"?xt=urn:btih:aa1e133f1ea86448f961f64246b837be16585d03&amp;dn=The.Dark.Knight.Rises.2012.TS.NEW.XVID.Legend2000&amp;tr=udp%3A%2F%2Ftracker.openbittorrent.com%3A80&amp;tr=udp%3A%2F%2Fopen.demonii.com%3A1337&amp;tr=udp%3A%2F%2Ftracker.coppersurfer.tk%3A6969&amp;tr=udp%3A%2F%2Fexodus.desync.com%3A6969","seeders":0,"leechers":0,"uploader":"Legend2K0","files":2,"time":1346178595,"description":"The.Dark.Knight.Rises.2012.TS.NEW.SOURCE.XVID\n &lt;a href=&quot;\nhttp://www.imdb.com/title/tt1345836/&quot; rel=&quot;nofollow&quot; target=&quot;_NEW&quot;&gt;\nhttp://www.imdb.com/title/tt1345836/&lt;/a&gt;\n\nPlot:\nEight years on, a new terrorist leader, Bane, overwhelms Gotham's finest, and the Dark Knight resurfaces to protect a city that has branded him an enemy.\n\nSources - audio-elvis/26k cam audio.....Thanks :P\n VIDEO-hd files.....Thanks :P\n\nVideo\nID : 0\nFormat : MPEG-4 Visual\nFormat profile : Simple@L5\nFormat settings, BVOP : No\nFormat settings, QPel : No\nFormat settings, GMC : No warppoints\nFormat settings, Matrix : Default (H.263)\nCodec ID : XVID\nCodec ID/Hint : XviD\nDuration : 2h 37mn\nBit rate : 1 494 Kbps\nWidth : 720 pixels\nHeight : 260 pixels\nDisplay aspect ratio : 2.769\nFrame rate : 29.970 fps\nColor space : YUV\nChroma subsampling : 4:2:0\nBit depth : 8 bits\nScan type : Progressive\nCompression mode : Lossy\nBits/(Pixel*Frame) : 0.266\nStream size : 1.64 GiB (92%)\nWriting library : XviD 64\n\nAudio\nID : 1\nFormat : MPEG Audio\nFormat version : Version 1\nFormat profile : Layer 3\nMode : Joint stereo\nMode extension : MS Stereo\nCodec ID : 55\nCodec ID/Hint : MP3\nDuration : 2h 37mn\nBit rate mode : Constant\nBit rate : 128 Kbps\nChannel(s) : 2 channels\nSampling rate : 44.1 KHz\nCompression mode : Lossy\nStream size : 144 MiB (8%)\nAlignment : Split accross interleaves\nInterleave, duration : 16366 ms (490.48 video frames)\nWriting library : LAME3.99r\nEncoding settings : -m j -V 4 -q 2 -lowpass 17 -b 128\n\nEnjoy and plz seeeeeeeeeeeeed!!\nThx Legend2000!","torrent":{"xt":"urn:btih:aa1e133f1ea86448f961f64246b837be16585d03","amp;dn":"The.Dark.Knight.Rises.2012.TS.NEW.XVID.Legend2000","amp;tr":["udp%3A%2F%2Ftracker.openbittorrent.com%3A80","udp%3A%2F%2Fopen.demonii.com%3A1337","udp%3A%2F%2Ftracker.coppersurfer.tk%3A6969","udp%3A%2F%2Fexodus.desync.com%3A6969"],"infoHash":"aa1e133f1ea86448f961f64246b837be16585d03","infoHashBuffer":{"type":"Buffer","data":[170,30,19,63,30,168,100,72,249,97,246,66,70,184,55,190,22,88,93,3]},"announce":[],"urlList":[]}}